<?xml version="1.0" encoding="utf-8"?>
<!-- Svg Vector Icons : http://www.onlinewebfonts.com/icon -->
<!DOCTYPE svg PUBLIC "-//W3C//DTD SVG 1.1//EN" "http://www.w3.org/Graphics/SVG/1.1/DTD/svg11.dtd">
<svg version="1.1" xmlns="http://www.w3.org/2000/svg" xmlns:xlink="http://www.w3.org/1999/xlink" x="0px" y="0px" viewBox="0 0 1000 1000" enable-background="new 0 0 1000 1000" xml:space="preserve">
<metadata> Svg Vector Icons : http://www.onlinewebfonts.com/icon </metadata>
<g><g transform="translate(0.000000,511.000000) scale(0.100000,-0.100000)"><path d="M896.1,4795.6c-378-102.5-696.8-437.2-776.5-817.5c-15.9-82-22.8-368.9-18.2-847.1c6.8-690,9.1-731,59.2-851.6c150.3-375.7,498.7-651.3,881.3-694.5l125.2-15.9v1097.6v1095.3h3837h3837V2666.5V1568.9l125.2,15.9c382.6,43.3,728.7,316.5,881.3,694.5c50.1,125.2,52.4,148,52.4,924.5s-2.3,801.6-52.4,924.5c-113.9,284.6-353,526-635.3,639.9l-132.1,52.4l-4030.6,4.6C1581.5,4829.8,1000.9,4825.2,896.1,4795.6z"/><path d="M1923.1,705.9l6.8-2306.8l52.4-129.8c113.9-282.4,355.2-523.8,639.9-637.6l127.5-52.4h2254.4h2254.4l129.8,52.4c282.4,113.9,523.7,355.2,637.6,639.9l52.4,127.5l6.8,2306.8l4.6,2304.5h-353h-353V1188.6V-633.1h-75.1c-111.6,0-327.9-61.5-457.7-132.1c-148-79.7-348.4-280.1-428.1-428.1c-70.6-129.8-132.1-346.1-132.1-457.7v-75.1H5006.4h-1282l-13.7,134.3c-52.4,489.6-462.3,899.5-951.9,951.9l-134.4,13.7v1817.2v1819.5h-353h-353L1923.1,705.9z"/><path d="M4685.3,2611.8c-400.8-88.8-703.6-327.9-872.1-685.4c-54.7-118.4-61.5-161.7-61.5-364.3c0-218.6,4.6-234.5,88.8-405.3c218.6-444.1,687.7-696.8,1243.3-667.2c507.8,25,908.6,282.4,1109,710.5c56.9,120.7,63.8,161.7,63.8,364.3c0,216.3-4.6,236.8-84.3,403.1C5930.9,2472.9,5300.1,2748.5,4685.3,2611.8z"/><path d="M1923.1-2511.8c15.9-214.1,77.4-389.4,195.8-560.2c102.5-148,318.8-316.5,498.7-389.4l132.1-52.4h2254.4h2254.4l129.8,52.4c284.6,116.2,530.6,362.1,635.3,639.9c25.1,70.6,52.4,209.5,61.5,309.7l11.4,179.9l-134.3-120.7c-141.2-125.2-421.3-275.5-612.6-325.6c-91.1-22.8-582.9-29.6-2356.9-29.6c-2113.2,0-2249.8,2.3-2379.6,41c-200.4,61.5-419,184.4-569.3,318.8l-132.1,116.1L1923.1-2511.8z"/><path d="M1923.1-3604.8c9.1-100.2,36.4-239.1,61.5-309.7c104.8-277.8,350.7-523.7,635.3-639.9l129.8-52.4h2254.4h2254.4l127.5,52.4c286.9,116.2,530.6,359.8,635.3,635.3c27.3,72.9,54.7,211.8,63.8,314.2l11.4,179.9l-134.3-118.4c-166.3-150.3-444-289.2-664.9-334.7c-245.9-50.1-4351.7-50.1-4593,0c-214,45.5-494.1,186.7-658.1,334.7l-134.4,118.4L1923.1-3604.8z"/></g></g>
</svg>